<svg width="67" height="24" viewBox="0 0 67 24" fill="none" xmlns="http://www.w3.org/2000/svg">
<path fill-rule="evenodd" clip-rule="evenodd" d="M7.57161 23.6082V10.9388H12.1916V7.15102H7.57161V5.94286C7.57161 4.63673 8.43786 3.78776 9.75327 3.78776H12.1916V0H9.14369C5.5183 0 3.11206 2.25306 3.11206 5.68163V7.15102H0V10.9388H3.11206V23.6082H7.57161ZM20.2215 23.8694C25.1944 23.8694 28.7556 20.2776 28.7556 15.3796C28.7556 10.4816 25.1944 6.8898 20.2215 6.8898C15.2486 6.8898 11.6874 10.4816 11.6874 15.3796C11.6874 20.2776 15.2486 23.8694 20.2215 23.8694ZM16.1791 15.3796C16.1791 18.0898 17.8153 19.951 20.2215 19.951C22.6278 19.951 24.264 18.0898 24.264 15.3796C24.264 12.6367 22.6278 10.7755 20.2215 10.7755C17.8153 10.7755 16.1791 12.6367 16.1791 15.3796ZM34.7643 23.6082V0H30.3048V23.6082H34.7643ZM37.1477 7.15102H41.6393V23.6082H37.1477V7.15102ZM51.4659 23.8694C56.4388 23.8694 60 20.2776 60 15.3796C60 10.4816 56.4388 6.8898 51.4659 6.8898C46.493 6.8898 42.9318 10.4816 42.9318 15.3796C42.9318 20.2776 46.493 23.8694 51.4659 23.8694ZM47.4234 15.3796C47.4234 18.0898 49.0597 19.951 51.4659 19.951C53.8721 19.951 55.5084 18.0898 55.5084 15.3796C55.5084 12.6367 53.8721 10.7755 51.4659 10.7755C49.0597 10.7755 47.4234 12.6367 47.4234 15.3796Z" fill="black"/>
<path fill-rule="evenodd" clip-rule="evenodd" d="M66.4001 23.0694V18.2694H61.6001V23.0694H66.4001Z" fill="#5468E7"/>
</svg>
